<svg xmlns="http://www.w3.org/2000/svg" width="36.015" height="32" viewBox="0 0 36.015 32">
  <g>
    <path fill="rgb(0,0,0)" fill-rule="evenodd" d="M36.01543492 29.00001011c-9.3e-7 1.65574508-1.34425661 2.99999925-3.00000169 2.99999832l-30.01543491-.00001686C1.34425324 31.99999064-9.3e-7 30.65573496 0 28.9999899c9.3e-7-1.65574508 1.34425661-2.99999925 3.00000168-2.99999832l30.01543492.00001686c1.65574508 9.3e-7 2.99999925 1.34425661 2.99999832 3.00000168z"/>
    <path fill="rgb(0,0,0)" fill-rule="evenodd" d="M24.01543492 16.00000674c-9.3e-7 1.65574508-1.34425661 2.99999925-3.00000169 2.99999832l-18.01543491-.00001012C1.34425324 18.99999401-9.3e-7 17.65573833 0 15.99999326c9.3e-7-1.65574508 1.34425661-2.99999925 3.00000168-2.99999832l18.01543492.00001012c1.65574508 9.3e-7 2.99999925 1.34425661 2.99999832 3.00000168z"/>
    <path fill="rgb(0,0,0)" fill-rule="evenodd" d="M36.01543492 3.00001011c-9.3e-7 1.65574508-1.34425661 2.99999925-3.00000169 2.99999832L2.99999832 5.99999157C1.34425324 5.99999064-9.3e-7 4.65573496 0 2.9999899 9.3e-7 1.3442448 1.34425661-.00000936 3.00000168-.00000843L33.0154366.00000843c1.65574508 9.3e-7 2.99999925 1.34425661 2.99999832 3.00000168z"/>
  </g>
</svg>
